<mxfile host="app.diagrams.net" agent="Mozilla/5.0 (X11; Linux x86_64; rv:143.0) Gecko/20100101 Firefox/143.0" version="28.2.4">
  <diagram name="Page-1" id="N1dTS0ZJd-hr_O32iyq_">
    <mxGraphModel dx="1280" dy="821" grid="1" gridSize="10" guides="1" tooltips="1" connect="1" arrows="1" fold="1" page="1" pageScale="1" pageWidth="850" pageHeight="1100" math="0" shadow="0">
      <root>
        <mxCell id="0" />
        <mxCell id="1" parent="0" />
        <mxCell id="zhmA49euhPRglNJhz3Kk-1" value="&lt;font style=&quot;font-size: 22px;&quot;&gt;Compilador&lt;/font&gt;" style="rounded=1;whiteSpace=wrap;html=1;fontSize=14;" parent="1" vertex="1">
          <mxGeometry x="160" y="280" width="170" height="80" as="geometry" />
        </mxCell>
        <mxCell id="zhmA49euhPRglNJhz3Kk-2" value="&lt;font style=&quot;font-size: 22px;&quot;&gt;Biblioteca OpenMP&lt;/font&gt;" style="rounded=1;whiteSpace=wrap;html=1;fontSize=14;" parent="1" vertex="1">
          <mxGeometry x="350" y="280" width="180" height="80" as="geometry" />
        </mxCell>
        <mxCell id="zhmA49euhPRglNJhz3Kk-3" value="VariÃ¡veis de Ambiente" style="rounded=1;whiteSpace=wrap;html=1;fontSize=22;" parent="1" vertex="1">
          <mxGeometry x="550" y="280" width="170" height="80" as="geometry" />
        </mxCell>
        <mxCell id="zhmA49euhPRglNJhz3Kk-4" value="" style="endArrow=none;html=1;rounded=0;strokeWidth=5;" parent="1" edge="1">
          <mxGeometry width="50" height="50" relative="1" as="geometry">
            <mxPoint x="140" y="370" as="sourcePoint" />
            <mxPoint x="740" y="370" as="targetPoint" />
          </mxGeometry>
        </mxCell>
        <mxCell id="zhmA49euhPRglNJhz3Kk-6" value="&lt;font&gt;&lt;i&gt;Runtime&lt;/i&gt;&lt;/font&gt;&lt;font&gt;&amp;nbsp;OpenMP&lt;/font&gt;" style="rounded=1;whiteSpace=wrap;html=1;fillColor=#dae8fc;strokeColor=#6c8ebf;fontSize=22;" parent="1" vertex="1">
          <mxGeometry x="160" y="380" width="550" height="80" as="geometry" />
        </mxCell>
        <mxCell id="zhmA49euhPRglNJhz3Kk-8" value="&lt;font&gt;OS&lt;/font&gt;" style="rounded=1;whiteSpace=wrap;html=1;fillColor=#d5e8d4;strokeColor=#82b366;fontSize=22;" parent="1" vertex="1">
          <mxGeometry x="160" y="470" width="550" height="80" as="geometry" />
        </mxCell>
        <mxCell id="zhmA49euhPRglNJhz3Kk-9" value="" style="endArrow=none;html=1;rounded=0;strokeWidth=5;" parent="1" edge="1">
          <mxGeometry width="50" height="50" relative="1" as="geometry">
            <mxPoint x="140" y="560" as="sourcePoint" />
            <mxPoint x="740" y="560" as="targetPoint" />
          </mxGeometry>
        </mxCell>
        <mxCell id="zhmA49euhPRglNJhz3Kk-10" value="&lt;font style=&quot;font-size: 22px;&quot;&gt;Hardware&lt;/font&gt;" style="rounded=1;whiteSpace=wrap;html=1;fillColor=#f8cecc;strokeColor=#b85450;" parent="1" vertex="1">
          <mxGeometry x="160" y="570" width="550" height="80" as="geometry" />
        </mxCell>
      </root>
    </mxGraphModel>
  </diagram>
</mxfile>
